<svg xmlns="http://www.w3.org/2000/svg" width="615" height="621" viewBox="0 0 615 621" version="1.1"><path d="" stroke="none" fill="#046c8c" fill-rule="evenodd"/><path d="M 289.405 18.420 C 286.052 19.185, 280.877 20.833, 277.905 22.083 C 263.568 28.109, 263.479 28.192, 143.893 147.837 C 19.148 272.642, 23.322 268.099, 17.417 285.500 C 15.371 291.527, 14.585 296.125, 14.227 304.144 C 13.455 321.430, 17.653 335.832, 27.400 349.346 C 29.841 352.731, 85.088 408.640, 150.169 473.589 C 266.099 589.282, 268.665 591.762, 276.626 595.825 C 286.841 601.039, 301.315 604.994, 310.188 604.997 C 322.752 605.002, 338.786 599.976, 349.861 592.561 C 354.502 589.453, 391.443 553.118, 472.628 471.808 C 588.756 355.500, 588.756 355.500, 593.270 346.364 C 599.179 334.405, 602.482 320.342, 601.683 310.545 C 600.652 297.898, 596.263 284.859, 589.546 274.492 C 585.207 267.795, 361.216 42.431, 350 33.478 C 335.843 22.177, 324.670 18.003, 307 17.413 C 299.446 17.161, 293.409 17.507, 289.405 18.420 M 296.799 28.726 C 294.223 28.997, 292.911 29.706, 292.481 31.061 C 291.211 35.062, 282.120 43.021, 274.829 46.515 C 270.829 48.432, 266.981 50, 266.278 50 C 265.575 50, 265 50.389, 265 50.865 C 265 51.815, 275.136 88.797, 277.371 96 C 278.923 101.003, 278.730 100.959, 288 98.412 C 296.998 95.938, 317.178 95.911, 325.500 98.360 C 328.800 99.332, 332.136 100.211, 332.912 100.313 C 334.727 100.553, 336.064 95.464, 345.529 52.307 C 345.938 50.441, 344.965 49.565, 339.002 46.432 C 334.430 44.029, 329.955 40.568, 326.122 36.471 C 320.388 30.342, 320.081 30.167, 313.183 29.096 C 306.201 28.013, 304.037 27.964, 296.799 28.726 M 222.677 84.823 C 197.057 110.453, 193.083 114.824, 194.398 115.915 C 197.454 118.452, 203.347 128.433, 205.309 134.396 C 206.946 139.373, 207.318 143.177, 207.320 155 C 207.321 162.975, 206.811 172.399, 206.186 175.941 C 205.561 179.484, 205.246 182.580, 205.487 182.820 C 206.822 184.156, 232.643 185.233, 240.495 184.281 C 245.225 183.707, 249.220 183.072, 249.373 182.869 C 249.526 182.666, 249.292 177.325, 248.852 171 C 247.900 157.288, 249.133 142, 251.917 133 C 254.217 125.565, 259.599 116.111, 264.441 111 C 267.757 107.500, 267.757 107.500, 262.429 88.603 C 259.499 78.210, 256.321 66.397, 255.368 62.353 C 254.414 58.309, 253.376 55, 253.061 55 C 252.746 55, 239.073 68.420, 222.677 84.823 M 357.150 71.254 C 355.857 78.539, 353.333 90.350, 351.540 97.500 C 348.279 110.500, 348.279 110.500, 353.800 116.480 C 364.244 127.793, 367.800 140.186, 366.575 161 C 366.203 167.325, 365.536 174.389, 365.093 176.698 C 364.437 180.116, 364.586 181.023, 365.894 181.577 C 368.096 182.511, 399.244 183.406, 402.355 182.626 C 404.865 181.996, 404.865 181.996, 404.851 169.248 C 404.830 150.395, 407.367 137.838, 414.259 122.682 C 417.359 115.863, 417.359 115.863, 388.430 86.935 C 359.500 58.007, 359.500 58.007, 357.150 71.254 M 290.770 112.871 C 287.069 113.836, 283.835 114.832, 283.583 115.084 C 283.331 115.336, 285.427 122.958, 288.240 132.021 C 296.501 158.630, 295.526 168.552, 283.460 180.654 C 280.634 183.489, 275.549 187.208, 272.161 188.919 C 268.772 190.629, 266 192.177, 266 192.358 C 266 193.931, 272.468 224.112, 274.023 229.797 C 275.625 235.652, 275.788 237.530, 274.847 239.297 C 272.125 244.407, 267.326 245.417, 263.577 241.668 C 261.232 239.323, 257.665 226.328, 253.430 204.699 C 251.999 197.395, 251.434 196.008, 250.103 196.540 C 246.920 197.814, 220.343 198.225, 211.569 197.136 C 206.657 196.527, 202.494 196.172, 202.318 196.348 C 202.142 196.525, 198.815 211.152, 194.924 228.854 C 187.850 261.039, 187.850 261.039, 192.512 266.225 C 201.611 276.345, 204.961 286.673, 204.985 304.678 C 204.993 310.825, 204.520 319.309, 203.933 323.530 C 203.055 329.843, 203.130 331.868, 204.358 334.936 C 206.133 339.373, 205.011 342.575, 200.866 344.901 C 198.485 346.238, 197.613 346.127, 190.674 343.596 C 163.370 333.638, 156.689 312.828, 168.876 275.696 C 171.765 266.892, 171.765 266.892, 169.520 265.421 C 165.409 262.728, 153.144 260.757, 144.500 261.401 C 134.803 262.124, 128.673 263.703, 129.289 265.319 C 129.536 265.969, 132.101 274.803, 134.989 284.951 C 139.597 301.141, 140.182 304.216, 139.764 310.050 C 138.902 322.101, 130.501 333.336, 117.078 340.390 C 110.199 344.005, 110.199 344.005, 112.008 352.252 C 114.285 362.637, 117.362 374.873, 120.665 386.681 C 123.176 395.657, 123.288 395.841, 125.682 394.931 C 132.908 392.183, 139.333 395.021, 139.333 400.960 C 139.333 404.817, 137.612 406.736, 132.881 408.154 C 130.747 408.793, 129 409.739, 129 410.255 C 129 410.771, 130.844 417.043, 133.098 424.192 C 135.665 432.335, 137.049 438.451, 136.803 440.563 C 136.430 443.753, 137.216 444.728, 151.436 458.717 C 159.701 466.848, 165.909 472.847, 165.231 472.050 C 163.369 469.857, 163.753 465.642, 166.039 463.189 C 168.495 460.553, 173.554 460.286, 176.171 462.655 C 177.649 463.992, 178 464.036, 178 462.883 C 178 460.360, 183.643 454.512, 188.769 451.722 C 191.845 450.048, 196.953 448.511, 202.125 447.702 C 210.500 446.393, 210.500 446.393, 210.396 442.947 C 210.340 441.051, 209.945 437.394, 209.520 434.821 C 208.493 428.597, 209.346 425.730, 213.642 420.975 C 218.275 415.846, 219.384 415.908, 218.615 421.250 C 217.828 426.719, 219.431 429.831, 224.519 432.712 C 229.554 435.564, 235.835 435.704, 239.222 433.040 C 240.592 431.962, 243.880 427.220, 246.528 422.502 C 253.794 409.555, 261.029 404.291, 270.322 405.192 C 273.500 405.500, 273.500 405.500, 269.824 407.673 C 264.914 410.574, 263.189 413.460, 260.827 422.718 C 258.223 432.921, 254.575 439.099, 246.565 446.867 C 242.954 450.369, 240 453.555, 240 453.946 C 240 455.622, 246.706 464.553, 253.129 471.431 C 262.283 481.233, 285.404 502, 287.163 502 C 288.305 502, 288.404 500.284, 287.730 492.250 C 287.280 486.887, 287.044 463.164, 287.206 439.530 C 287.500 396.560, 287.500 396.560, 280.500 393.774 C 275.622 391.832, 272.407 391.138, 269.896 391.482 C 266.292 391.977, 266.292 391.977, 265.673 384.739 C 264.395 369.772, 260.158 362.097, 250.729 357.670 C 239.653 352.469, 227.138 351.848, 218.827 356.088 C 213.559 358.776, 206.838 365.028, 204.449 369.465 C 203.402 371.409, 202.198 373, 201.773 373 C 200.502 373, 200.898 367.181, 202.415 363.549 C 203.193 361.687, 203.568 359.901, 203.248 359.582 C 201.920 358.253, 191.700 359.143, 186.788 361.014 C 176.288 365.014, 165.557 375.414, 166.204 380.963 C 166.477 383.304, 166.833 383.474, 170.819 383.157 C 175.022 382.824, 181 384.487, 181 385.990 C 181 386.400, 178.188 387.523, 174.750 388.485 C 162.081 392.028, 153.595 398.264, 149.646 406.930 C 146.598 413.622, 146.608 428.835, 149.666 434.545 C 153.647 441.980, 161.854 448.162, 173.500 452.496 C 175.282 453.159, 175.127 453.399, 172.082 454.692 C 169.029 455.988, 168.173 455.960, 164.082 454.427 C 152.801 450.203, 145.759 444.043, 141.302 434.500 C 138.885 429.323, 138.500 427.265, 138.500 419.500 C 138.500 411.596, 138.853 409.782, 141.397 404.600 C 143.178 400.972, 146.881 396.159, 151.013 392.100 C 156.496 386.715, 157.950 384.603, 158.912 380.627 C 161.714 369.043, 168.959 359.786, 178.852 355.148 C 184.053 352.709, 185.528 352.500, 197.500 352.500 C 210.471 352.500, 210.510 352.493, 215.061 349.332 C 233.840 336.288, 261.334 344.755, 269.066 365.962 C 271.326 372.158, 273.612 374, 279.047 374 C 282.904 374, 285.306 371.471, 287.812 364.772 C 292.276 352.841, 293.987 338.961, 292.031 330.528 C 291.525 328.344, 291.315 326.351, 291.566 326.101 C 292.376 325.291, 298.107 331.380, 300.744 335.853 C 304.392 342.039, 305.966 349.906, 305.984 362.027 C 306.002 373.771, 306.985 376.347, 311.817 377.313 C 318.162 378.582, 331.025 373.987, 342.552 366.334 C 349.383 361.799, 361.018 358.275, 360.992 360.750 C 360.988 361.163, 359.146 362.550, 356.899 363.833 C 354.652 365.117, 348.695 370.429, 343.660 375.638 C 330.290 389.471, 322.141 393.969, 307.637 395.522 C 303.924 395.920, 300.539 396.851, 299.868 397.659 C 297.485 400.531, 299.998 478.192, 303.335 504.781 C 304.500 514.062, 304.500 514.062, 312.250 504.010 C 316.512 498.481, 320 493.503, 320 492.947 C 320 492.392, 319.084 489.217, 317.964 485.892 C 316.198 480.651, 316.013 478.364, 316.568 468.674 C 317.088 459.596, 316.894 456.591, 315.532 452.655 C 313.610 447.097, 313.992 446.109, 317.241 448.239 C 320.458 450.347, 324.673 458.500, 326.423 466 C 328.528 475.026, 329.066 475.379, 337.855 473.531 C 343.019 472.444, 346.252 472.271, 349.164 472.926 C 355.517 474.353, 355.663 475.366, 350.039 478.975 C 340.674 484.985, 338.599 490.348, 343.750 495.234 C 345.262 496.669, 350.850 499.909, 356.167 502.435 C 364.903 506.584, 366.036 507.442, 367.917 511.329 C 370.068 515.772, 370.704 522.447, 369.072 523.456 C 368.562 523.771, 367.835 523.010, 367.457 521.765 C 365.681 515.909, 360.516 512.730, 350 511.019 C 341.589 509.650, 335.648 507.358, 330.672 503.564 C 328.824 502.154, 326.813 501, 326.204 501 C 324.773 501, 320.805 506.831, 312.986 520.427 C 306.702 531.353, 306.702 531.353, 309.511 548.927 C 315.809 588.316, 316.570 592.357, 317.772 592.757 C 318.595 593.032, 319 591.950, 319 589.478 C 319 584.169, 320.858 577.645, 331.409 545.906 C 337.255 528.319, 341.490 517.115, 342.599 516.304 C 346.876 513.176, 354 516.666, 354 521.889 C 354 523.132, 349.751 536.911, 344.558 552.509 C 339.365 568.106, 334.801 582.545, 334.416 584.595 C 333.783 587.969, 333.896 588.255, 335.608 587.613 C 342.483 585.033, 350.647 577.864, 378.921 549.580 C 410.008 518.481, 410.008 518.481, 408.823 515.341 C 407.830 512.712, 407.913 511.782, 409.332 509.617 C 411.336 506.558, 415.250 505.337, 418.421 506.782 C 420.517 507.737, 422.909 505.603, 448.977 479.523 C 467.243 461.249, 476.994 450.800, 476.512 450.020 C 476.101 449.355, 477.922 440.492, 480.559 430.324 C 485.953 409.524, 486.203 411.083, 477.025 408.355 C 466.531 405.236, 441.024 407.014, 442.463 410.765 C 442.799 411.640, 445.411 419.814, 448.268 428.928 C 454.676 449.374, 455.180 457.025, 450.718 466.145 C 445.657 476.488, 432.566 487.112, 426.697 485.639 C 423.221 484.766, 420.670 479.998, 421.920 476.710 C 422.423 475.388, 425.069 472.701, 427.801 470.738 C 440.423 461.670, 441.369 456.391, 434.441 433.671 C 431.813 425.052, 429.389 418, 429.055 418 C 427.574 418, 422.735 427.112, 420.824 433.500 C 418.267 442.049, 416.698 444, 412.384 444 C 408.601 444, 405 440.827, 405 437.493 C 405 429.607, 413.093 413.058, 420.201 406.409 C 425.197 401.736, 425.197 401.736, 420.139 385.118 C 417.357 375.978, 413.872 363.917, 412.394 358.314 C 409.707 348.129, 409.707 348.129, 405.020 348.684 C 400.775 349.187, 400.129 348.979, 398.167 346.485 C 394.702 342.080, 395.431 337.863, 400.072 335.463 C 401.628 334.658, 403.872 334, 405.059 334 C 406.794 334, 407.109 333.559, 406.665 331.750 C 405.196 325.758, 403.813 306.575, 404.304 299 C 404.948 289.064, 408.656 276.470, 412.841 270 C 414.442 267.525, 417.770 263.555, 420.238 261.177 C 424.725 256.853, 424.725 256.853, 418.468 237.677 C 415.027 227.130, 411.170 214, 409.896 208.500 C 407.581 198.500, 407.581 198.500, 384.303 198.500 C 361.024 198.500, 361.024 198.500, 359.413 206 C 354.354 229.551, 350.637 243.363, 348.890 245.110 C 344.832 249.168, 337 246.085, 337 240.431 C 337 239.018, 338.094 233.506, 339.432 228.181 C 342.348 216.574, 347.164 193.816, 346.776 193.480 C 346.624 193.348, 344.097 192.033, 341.160 190.558 C 326.368 183.127, 316.812 167.802, 318.417 154.087 C 318.776 151.014, 321.352 141.145, 324.140 132.155 C 326.946 123.110, 328.828 115.429, 328.355 114.957 C 327.885 114.487, 324.818 113.405, 321.540 112.552 C 313.653 110.498, 299.294 110.647, 290.770 112.871 M 269.674 128.171 C 265.455 135.467, 263.908 142.546, 263.371 157 C 263.095 164.425, 263.236 172.371, 263.684 174.657 C 264.500 178.814, 264.500 178.814, 269.902 175.202 C 277.128 170.370, 281 164.217, 281 157.564 C 281 153.538, 273.891 125.649, 272.488 124.171 C 272.317 123.991, 271.050 125.791, 269.674 128.171 M 339.180 139.753 C 334.310 155.981, 334.064 159.727, 337.485 165.565 C 339.922 169.723, 347.213 176, 349.607 176 C 351.230 176, 352.396 161.645, 351.789 149.133 C 351.311 139.278, 349.474 133.387, 345.249 128.162 C 343.359 125.825, 343.359 125.825, 339.180 139.753 M 426.582 130.458 C 421.685 142.179, 419 156.206, 419 170.072 C 419 175.892, 419.344 178, 420.294 178 C 423.143 178, 432.602 171.243, 435.461 167.165 C 438.711 162.530, 438.696 162.670, 438.062 143.866 C 437.805 136.233, 437.805 136.233, 432.975 131.475 C 428.145 126.718, 428.145 126.718, 426.582 130.458 M 184.242 129.217 C 183.661 129.923, 181.456 134.775, 179.342 140 C 176.048 148.146, 175.500 150.591, 175.500 157.157 C 175.500 164.225, 175.738 165.110, 178.597 168.657 C 181.535 172.302, 190.553 178.780, 191.446 177.888 C 192.694 176.639, 194.185 158.152, 193.720 149.680 C 193.274 141.548, 192.692 138.889, 190.340 134.219 C 187.336 128.252, 185.964 127.128, 184.242 129.217 M 136.167 171.333 C 121.733 185.775, 110.198 197.865, 110.534 198.201 C 110.870 198.537, 112.682 205.183, 114.562 212.971 C 117.713 226.025, 123.714 247.707, 124.558 249.088 C 124.756 249.412, 127.974 249.036, 131.709 248.254 C 141.830 246.135, 162.762 246.988, 169.940 249.812 C 172.933 250.989, 175.428 251.851, 175.485 251.726 C 175.543 251.602, 177.776 241.600, 180.448 229.500 C 183.120 217.400, 186.088 204.013, 187.044 199.751 C 188.783 192.002, 188.783 192.002, 182.879 188.855 C 167.213 180.505, 158.526 164.460, 161.856 150.027 C 162.423 147.567, 162.780 145.447, 162.649 145.315 C 162.517 145.184, 150.600 156.892, 136.167 171.333 M 453.684 155.681 C 455.373 168.271, 444.705 183.682, 429.092 191.208 C 425.466 192.955, 422.328 194.508, 422.119 194.657 C 420.831 195.577, 435.661 246.959, 437.848 249.155 C 438.206 249.515, 441.650 249.140, 445.500 248.321 C 455.638 246.165, 476.646 246.941, 483.733 249.733 C 488.967 251.795, 488.967 251.795, 491 245.148 C 492.118 241.491, 494.369 231.750, 496.001 223.500 C 497.634 215.250, 499.402 206.475, 499.930 204 C 500.891 199.500, 500.891 199.500, 477.017 175.574 C 453.440 151.946, 453.150 151.698, 453.684 155.681 M 67.363 240.228 C 37.589 270.210, 36.135 271.851, 32.135 280 C 26.850 290.766, 24.617 300.989, 25.364 311 C 26.148 321.496, 26.991 325, 28.732 325 C 29.547 325, 32.978 326.316, 36.357 327.925 C 46.340 332.678, 56.303 334.185, 75.311 333.819 C 84.401 333.643, 92.137 333.201, 92.501 332.835 C 92.865 332.470, 92.640 328.724, 92.002 324.512 C 90.310 313.351, 90.558 293.741, 92.483 286.500 C 95.159 276.429, 99.454 268.487, 105.682 262.093 C 111.500 256.120, 111.500 256.120, 109.177 248.810 C 107.900 244.790, 104.956 234.178, 102.637 225.228 C 98.419 208.956, 98.419 208.956, 67.363 240.228 M 510.734 226.250 C 509.215 234.088, 506.695 244.949, 505.134 250.386 C 502.295 260.272, 502.295 260.272, 506.098 263.707 C 511.324 268.429, 516.408 276.367, 519.128 284.054 C 521.121 289.687, 521.405 292.393, 521.382 305.500 C 521.368 313.750, 520.827 323.164, 520.180 326.419 C 519.534 329.675, 519.266 332.600, 519.585 332.919 C 519.904 333.239, 529.240 333.500, 540.332 333.500 C 560.500 333.500, 560.500 333.500, 560.578 313.500 C 560.663 291.629, 561.405 287.241, 567.082 275.045 C 570.086 268.591, 570.086 268.591, 541.791 240.295 C 513.496 212, 513.496 212, 510.734 226.250 M 299.387 236.027 C 287.695 237.677, 277.655 243.110, 270.694 251.555 C 266.974 256.068, 262.621 258, 256.169 258 C 233.614 258, 214.163 272.921, 208.531 294.542 C 205.153 307.511, 208.120 321.998, 215.864 330.339 C 218.181 332.834, 222.959 336, 224.409 336 C 224.688 336, 223.163 332.738, 221.019 328.750 C 211.350 310.765, 214.269 295.225, 230.064 280.601 C 233.304 277.602, 238.990 273.652, 242.701 271.824 C 248.546 268.944, 250.655 268.455, 258.492 268.161 C 268.309 267.794, 276.020 269.671, 284.902 274.591 C 287.323 275.932, 289.512 276.821, 289.766 276.567 C 290.020 276.313, 289.279 274.569, 288.118 272.692 C 285.995 269.256, 280.847 265.183, 275.750 262.907 C 271.719 261.107, 272.341 258.503, 277.750 254.535 C 292.459 243.746, 316.193 243.935, 332.724 254.974 C 338.837 259.057, 344.699 266.061, 343.553 267.914 C 343.202 268.481, 341.022 269.445, 338.708 270.055 C 333.714 271.371, 327.249 274.963, 324.594 277.896 C 322.288 280.444, 323.087 280.511, 331.500 278.480 C 339.553 276.536, 353.288 276.599, 360.068 278.613 C 376.849 283.595, 391 302.572, 391 320.092 C 391 330.257, 384.596 343.289, 375.097 352.453 C 372.844 354.627, 371 356.753, 371 357.178 C 371 357.603, 372.462 357.677, 374.250 357.344 C 386.645 355.032, 399.949 334.332, 399.988 317.299 C 400.040 294.594, 385.034 274.873, 364 270.002 C 355.801 268.104, 351.318 265.456, 348.302 260.730 C 343.052 252.506, 338.571 247.679, 332.611 243.827 C 322.984 237.605, 309.927 234.539, 299.387 236.027 M 450.500 262.126 C 447.200 262.685, 444.163 263.469, 443.752 263.869 C 443.341 264.269, 445.036 270.649, 447.520 278.048 C 453.132 294.769, 454.426 302.239, 453.025 309.841 C 450.779 322.029, 442.328 333.288, 430.371 340.021 C 427.142 341.839, 424.349 343.441, 424.165 343.582 C 423.424 344.146, 437.131 393.465, 438.374 394.707 C 438.519 394.852, 441.757 394.311, 445.569 393.503 C 458.752 390.710, 479.617 392.165, 487.914 396.455 C 489.611 397.333, 491 397.820, 491 397.538 C 491 397.256, 492.142 392.632, 493.538 387.263 C 495.653 379.130, 502 346.621, 502 343.922 C 502 343.480, 499.303 341.680, 496.008 339.923 C 488.673 336.014, 481.305 328.813, 477.516 321.852 C 475.380 317.927, 474.570 314.884, 474.250 309.567 C 473.863 303.170, 474.349 300.801, 479.373 284.592 C 482.425 274.742, 484.696 266.317, 484.418 265.868 C 482.409 262.617, 461.330 260.291, 450.500 262.126 M 112.689 275.727 C 106.197 285.095, 103.844 299.868, 105.953 318.020 C 106.622 323.784, 107.350 328.681, 107.570 328.902 C 108.518 329.854, 119.266 321.615, 122.002 317.838 C 126.244 311.983, 126.030 306.541, 120.839 288.201 C 118.550 280.115, 116.373 273.145, 116.001 272.712 C 115.629 272.279, 114.139 273.635, 112.689 275.727 M 426.222 276.177 C 421.271 283.373, 418.987 292.551, 419.084 304.855 C 419.174 316.101, 420.162 326.496, 421.246 327.580 C 422.307 328.640, 428.661 324.193, 432.795 319.496 C 437.033 314.680, 439 309.481, 439 303.091 C 439 299.159, 431.705 274.476, 430.006 272.660 C 429.574 272.198, 427.871 273.781, 426.222 276.177 M 493.633 289.517 C 489.041 304.533, 488.400 308.651, 489.931 313.290 C 491.058 316.707, 498.479 324.581, 502.702 326.840 C 504.476 327.790, 504.877 327.627, 505.446 325.726 C 506.819 321.144, 507.263 297.537, 506.083 291.875 C 504.970 286.537, 499.950 277, 498.253 277 C 497.818 277, 495.739 282.633, 493.633 289.517 M 181.626 282.619 C 179.511 288.990, 176.998 302.156, 177.006 306.838 C 177.016 313.513, 179.026 318.292, 183.802 322.997 C 188.374 327.500, 188.374 327.500, 189.273 323 C 189.768 320.525, 190.228 312.875, 190.295 306 C 190.425 292.699, 188.869 284.890, 185.134 280.098 C 183.262 277.696, 183.262 277.696, 181.626 282.619 M 291.500 280.635 C 285.396 281.572, 277.339 284.263, 271.729 287.239 C 260.303 293.301, 248.819 308.515, 245.932 321.413 C 244.811 326.421, 245.377 334.957, 246.739 333.595 C 247.074 333.259, 248.540 329.923, 249.996 326.181 C 252.924 318.654, 258.354 309.939, 262.683 305.817 C 267.130 301.582, 276.912 296.111, 284 293.895 C 301.527 288.415, 323.316 293.655, 336.352 306.484 C 348.652 318.589, 352.445 334.283, 347.592 352.991 C 345.850 359.706, 347.572 359.151, 351.353 351.778 C 355.517 343.661, 356.739 333.599, 354.743 323.868 C 352.451 312.698, 348.645 305.614, 340.522 297.400 C 333.115 289.911, 323.559 284.451, 313.760 282.109 C 308.245 280.791, 295.839 279.970, 291.500 280.635 M 579.572 282.024 C 579.276 282.836, 578.286 285.525, 577.374 288 C 575.495 293.094, 574.187 323.822, 575.682 327.740 C 576.536 329.979, 576.536 329.979, 582.710 327.060 C 588.279 324.426, 588.951 323.777, 589.579 320.431 C 590.698 314.468, 589.257 301.540, 586.633 293.995 C 583.681 285.505, 580.358 279.871, 579.572 282.024 M 580.752 341.841 C 579.061 342.862, 578.003 344.366, 578.002 345.750 C 577.999 349.100, 579.358 348.486, 581.880 344 C 583.116 341.800, 583.987 340.041, 583.814 340.091 C 583.641 340.142, 582.263 340.929, 580.752 341.841 M 69.634 377.134 C 102.447 409.959, 102.447 409.959, 105.963 406.729 C 107.896 404.953, 109.657 403.400, 109.877 403.279 C 110.096 403.157, 108.872 398.207, 107.156 392.279 C 104.635 383.568, 100.824 368.541, 96.560 350.500 C 96.106 348.577, 95.229 348.497, 73.794 348.420 C 54.702 348.351, 50.446 348.051, 44.160 346.324 C 36.820 344.309, 36.820 344.309, 69.634 377.134 M 515.016 354.253 C 512.790 368.112, 508 390.547, 505.638 398.177 C 503.262 405.855, 503.262 405.855, 507.958 410.857 C 512.654 415.859, 512.654 415.859, 539.775 388.680 C 566.895 361.500, 566.895 361.500, 565.316 355 C 563.737 348.500, 563.737 348.500, 542.618 348.500 C 531.003 348.500, 520.303 348.164, 518.840 347.753 C 516.202 347.013, 516.170 347.067, 515.016 354.253 M 207.265 375.477 C 194.078 379.191, 183.227 388.017, 177.928 399.339 C 171.242 413.628, 172.328 426.663, 181.262 439.339 C 183.234 442.137, 190.559 448, 192.082 448 C 192.513 448, 191.355 445.756, 189.510 443.014 C 181.486 431.092, 179.169 416.684, 183.686 406.814 C 186.632 400.377, 194.067 393.571, 202.948 389.181 C 209.872 385.759, 211.034 385.500, 219.448 385.500 C 227.444 385.500, 229.200 385.844, 234.500 388.445 C 237.879 390.104, 243.323 394.145, 246.962 397.695 C 250.516 401.163, 253.554 404, 253.712 404 C 254.845 404, 253.562 398.514, 251.428 394.230 C 247.998 387.348, 239.501 379.708, 232.247 376.982 C 224.831 374.196, 214.107 373.550, 207.265 375.477 M 339.758 382.750 C 338.905 383.712, 337.482 387.359, 336.598 390.852 C 334.712 398.300, 335.728 401.829, 340.212 403.406 C 346.081 405.470, 350.182 400.763, 351.525 390.418 C 352.067 386.250, 351.841 385.157, 350.043 383.250 C 347.443 380.492, 341.995 380.227, 339.758 382.750 M 337.005 408.668 C 326.686 412.278, 319.431 420.250, 316.680 431 C 315.269 436.511, 315.707 441.069, 317.711 441.737 C 318.334 441.945, 319.286 439.896, 319.903 437.019 C 322.919 422.954, 330.932 416.052, 345.230 415.204 C 352.112 414.796, 353.560 415.039, 358.434 417.424 C 364.995 420.634, 368.370 424.398, 372.174 432.750 C 373.739 436.188, 375.435 439, 375.943 439 C 377.115 439, 378.183 435.719, 377.606 433.891 C 375.228 426.358, 376.188 425.525, 383.153 429.078 C 391.096 433.130, 401 446.219, 401 452.664 C 401 454.760, 400.602 454.919, 395.857 454.718 C 389.566 454.451, 388.661 455.991, 393.697 458.392 C 404.668 463.624, 410.285 472.349, 410.175 483.988 C 410.105 491.510, 407.702 498.518, 403.701 502.869 C 400.675 506.160, 390.494 510.865, 384.750 511.627 C 379.177 512.367, 378.715 513.421, 383.301 514.934 C 386.949 516.138, 394.356 515.132, 400.385 512.613 C 405.457 510.493, 412.775 503.350, 415.825 497.540 C 418.084 493.239, 418.472 491.253, 418.474 484 C 418.476 474.321, 417.057 470.735, 410.103 462.847 C 406.621 458.898, 406 457.525, 406 453.778 C 406 438.994, 393.969 424.004, 379.731 421.048 C 374.419 419.945, 372.539 418.949, 363.682 412.542 C 355.799 406.840, 346.210 405.447, 337.005 408.668 M 114.161 419.306 C 113.289 420.357, 113.716 421.311, 116.064 423.561 C 119.091 426.461, 119.091 426.461, 117.440 422.480 C 115.398 417.555, 115.518 417.671, 114.161 419.306 M 497.629 423 C 496.547 426.122, 495.066 432.399, 495.345 432.679 C 495.506 432.839, 497.087 431.474, 498.859 429.646 C 502.081 426.321, 502.081 426.321, 500.115 423.911 C 498.553 421.995, 498.042 421.808, 497.629 423 M 342.882 438.322 C 336.883 440.563, 332.223 443.904, 329.936 447.603 C 328.746 449.529, 328.006 451.340, 328.293 451.626 C 328.579 451.913, 330.740 450.752, 333.093 449.047 C 341.879 442.683, 354.029 441.424, 362.914 445.956 C 380.119 454.734, 387.687 482.486, 376.309 495.080 C 374.383 497.212, 371.252 499.917, 369.351 501.092 C 367.450 502.267, 366.100 503.433, 366.350 503.683 C 367.592 504.926, 375.749 501.132, 379.943 497.362 C 390.248 488.096, 393.584 472.124, 387.798 459.747 C 384.247 452.152, 376.436 444.034, 369.266 440.489 C 364.584 438.173, 361.902 437.575, 355 437.304 C 349.533 437.090, 345.209 437.454, 342.882 438.322 M 189.852 459.334 C 187.846 460.082, 184.973 461.663, 183.467 462.847 C 181.962 464.031, 180.032 465, 179.178 465 C 176.935 465, 182.577 470.709, 187.142 473.057 C 190.783 474.930, 190.783 474.930, 191.464 470.393 C 191.838 467.898, 193.012 464.988, 194.072 463.928 C 196.634 461.366, 201.461 461.461, 204.127 464.127 C 205.974 465.974, 206.188 467.073, 205.753 472.489 C 205.252 478.724, 205.252 478.724, 213.376 479.338 C 217.844 479.675, 226.491 479.804, 232.592 479.624 C 244.250 479.279, 245.703 479.679, 247.920 483.841 C 249.585 486.966, 247.812 491.302, 244.182 492.982 C 241.502 494.223, 207.686 494.584, 204.613 493.405 C 203.622 493.025, 202.876 494.381, 201.983 498.187 C 201.297 501.109, 200.368 504.216, 199.918 505.091 C 199.284 506.323, 207.795 515.337, 237.686 545.091 C 258.908 566.216, 276.456 582.988, 276.682 582.362 C 276.907 581.737, 275.899 577.912, 274.442 573.862 C 266.681 552.300, 257.914 526.349, 255.474 517.718 C 253.213 509.720, 252.915 507.481, 253.842 505.447 C 255.375 502.083, 259.538 500.566, 263.141 502.058 C 266.238 503.341, 266.571 504.113, 273.017 525 C 275.309 532.425, 280.120 546.600, 283.709 556.500 C 287.298 566.400, 290.952 578.100, 291.829 582.500 C 292.707 586.900, 293.442 590.572, 293.462 590.661 C 293.483 590.749, 295.193 591.138, 297.262 591.524 C 300.218 592.077, 300.918 591.935, 300.530 590.864 C 300.258 590.114, 298.018 575.371, 295.553 558.103 C 291.666 530.877, 290.747 526.216, 288.631 523.019 C 287.290 520.992, 279.156 512.621, 270.556 504.416 C 253.899 488.526, 241.395 475.082, 234.645 465.802 C 232.365 462.668, 229.734 459.832, 228.797 459.500 C 227.860 459.167, 224.485 459.359, 221.297 459.926 C 217.385 460.622, 213.387 460.634, 209 459.961 C 196.645 458.065, 193.527 457.963, 189.852 459.334 M 182.066 489.566 C 184.990 492.528, 187.478 494.849, 187.594 494.725 C 187.710 494.601, 187.961 493.514, 188.152 492.308 C 188.438 490.509, 187.449 489.586, 182.624 487.150 C 176.749 484.182, 176.749 484.182, 182.066 489.566" stroke="none" fill="#046c94" fill-rule="evenodd"/></svg>